<svg width="22" height="22" viewBox="0 0 22 22" fill="none" xmlns="http://www.w3.org/2000/svg">
<g clip-path="url(#clip0_339_539)">
<path d="M1.55118 0.0472584C0.812122 0.193352 0.184778 0.82929 0.042981 1.58554C-0.0171753 1.90351 -0.0171753 16.1863 0.042981 16.5043C0.189075 17.2777 0.812122 17.9008 1.58556 18.0469C1.72736 18.0727 2.88322 18.0898 4.59337 18.0898H7.37345L7.47228 18.9363C7.63986 20.3844 7.67423 20.5734 7.84181 20.9086C8.00509 21.2437 8.37462 21.6305 8.6797 21.7852C9.10509 22.0043 9.00196 22 14.7856 22C18.2789 22 20.2641 21.9828 20.4145 21.957C21.1879 21.8109 21.8109 21.1879 21.957 20.4144C22.0172 20.0965 22.0172 5.81367 21.957 5.4957C21.8281 4.82538 21.3856 4.30116 20.7152 4.03046L20.4746 3.93163L15.6192 3.91015L10.7637 3.88866L10.6262 2.77148C10.5488 2.15702 10.4672 1.56835 10.4414 1.46523C10.3254 1.00546 9.9172 0.468353 9.5047 0.244915C9.05782 -7.62939e-06 9.05782 -7.62939e-06 5.2422 0.00428963C3.3172 0.00858688 1.65431 0.025774 1.55118 0.0472584ZM8.92892 1.40937C9.00626 1.46523 9.0965 1.56835 9.13517 1.6414C9.18243 1.73163 9.48321 4.03476 10.1234 9.16953C10.6262 13.2344 11.0516 16.616 11.0602 16.6805L11.0859 16.8008H6.44103C1.87775 16.8008 1.8004 16.8008 1.63282 16.7148C1.52111 16.659 1.43087 16.5687 1.37501 16.457C1.28907 16.2894 1.28907 16.2207 1.28907 9.04492C1.28907 1.87343 1.28907 1.80038 1.37501 1.6328C1.42657 1.52968 1.5254 1.43085 1.62423 1.37929C1.77892 1.29335 1.86486 1.29335 5.28517 1.30195L8.78712 1.31054L8.92892 1.40937ZM20.3672 5.28515C20.4789 5.34101 20.5692 5.43124 20.625 5.54296C20.7109 5.71054 20.7109 5.77929 20.7109 12.9551C20.7109 20.1309 20.7109 20.1996 20.625 20.3672C20.5692 20.4789 20.4789 20.5691 20.3672 20.625C20.1996 20.7109 20.1395 20.7109 15.0262 20.7023L9.85275 20.6894L11.116 19.2285C11.9668 18.2445 12.3879 17.7203 12.418 17.6215C12.4481 17.5055 12.2934 16.1391 11.709 11.434C11.2965 8.11249 10.9527 5.3496 10.9442 5.29374L10.927 5.19921H15.5633C20.1223 5.19921 20.1996 5.19921 20.3672 5.28515ZM9.67657 18.9191C9.28126 19.3789 8.94181 19.757 8.91603 19.7613C8.88165 19.7656 8.69259 18.5066 8.684 18.1844L8.6797 18.0898H9.53907H10.3984L9.67657 18.9191Z" fill="#0E0E0E"/>
<path d="M4.94141 4.62344C4.62773 4.75234 4.64062 4.70078 3.92734 8.28008C3.56211 10.0934 3.26562 11.623 3.26562 11.6746C3.26562 11.9711 3.59648 12.2891 3.91016 12.2891C4.1207 12.2891 4.36992 12.1387 4.46016 11.9539C4.50742 11.868 4.63633 11.3266 4.74805 10.7508L4.9543 9.71094H5.84375H6.7332L6.93945 10.7508C7.05117 11.3266 7.18008 11.868 7.22734 11.9539C7.31758 12.1387 7.5668 12.2891 7.77734 12.2891C8.09102 12.2891 8.42188 11.9711 8.42188 11.6746C8.42188 11.623 8.12539 10.0934 7.76016 8.28008C7.04258 4.68359 7.05977 4.75234 6.7332 4.61914C6.50977 4.52891 5.16055 4.52891 4.94141 4.62344ZM6.21758 7.13281L6.47539 8.42188H5.84375H5.21211L5.46992 7.13281L5.72773 5.84375H5.84375H5.95977L6.21758 7.13281Z" fill="#0E0E0E"/>
<path d="M15.8469 8.51213C15.5977 8.64103 15.5117 8.85158 15.5117 9.32423V9.71095H14.4805C13.5266 9.71095 13.432 9.71955 13.2773 9.79689C13.084 9.89572 12.9336 10.1406 12.9336 10.3555C12.9336 10.6863 13.2516 11 13.5867 11C13.7242 11 13.7328 11.0129 13.8316 11.2879C14.1109 12.0742 14.5492 12.8906 15.0262 13.5137L15.2539 13.8145L15.052 13.9992C14.9359 14.1024 14.5922 14.3903 14.2828 14.6352C13.9133 14.9317 13.6984 15.1379 13.6512 15.2367C13.3934 15.7738 13.9691 16.3582 14.4934 16.0832C14.6395 16.0102 15.1766 15.5891 15.7695 15.0906C15.9672 14.9188 16.1434 14.7813 16.1562 14.7813C16.1691 14.7813 16.3453 14.9188 16.543 15.0906C17.1359 15.5891 17.673 16.0102 17.8191 16.0832C18.2188 16.2895 18.7344 15.9672 18.7344 15.516C18.7344 15.2582 18.6055 15.0992 18.0297 14.6352C17.7203 14.3903 17.3766 14.1024 17.2605 13.9992L17.0586 13.8145L17.2863 13.5137C17.7633 12.8906 18.2016 12.0742 18.4809 11.2879C18.5797 11.0129 18.5883 11 18.7258 11C19.0609 11 19.3789 10.6863 19.3789 10.3555C19.3789 10.1406 19.2285 9.89572 19.0352 9.79689C18.8805 9.71955 18.7859 9.71095 17.832 9.71095H16.8008V9.32423C16.8008 8.84299 16.7148 8.64103 16.457 8.50783C16.2465 8.40041 16.0531 8.40041 15.8469 8.51213ZM17.1875 11.0516C17.1832 11.2535 16.268 12.8477 16.1562 12.8477C16.0445 12.8477 15.1293 11.2535 15.125 11.0516C15.125 11.0129 15.3613 11 16.1562 11C16.9512 11 17.1875 11.0129 17.1875 11.0516Z" fill="#0E0E0E"/>
</g>
<defs>
<clipPath id="clip0_339_539">
<rect width="22" height="22" fill="white"/>
</clipPath>
</defs>
</svg>
